<svg xmlns="http://www.w3.org/2000/svg" viewBox="0 0 16 22"><g fill="none"><polygon points="0 0 24 0 24 24 0 24"/><path d="M13.5 5.5C14.6 5.5 15.5 4.6 15.5 3.5 15.5 2.4 14.6 1.5 13.5 1.5 12.4 1.5 11.5 2.4 11.5 3.5 11.5 4.6 12.4 5.5 13.5 5.5ZM10.3 17.5L10.9 15 13 17 13 22C13 22.5 13.4 23 14 23 14.5 23 15 22.5 15 22L15 16.3C15 15.8 14.8 15.3 14.4 14.9L12.9 13.5 13.5 10.5C14.6 11.7 16.1 12.6 17.9 12.9 18.5 13 19 12.5 19 11.9 19 11.4 18.6 11 18.1 10.9 16.6 10.7 15.4 9.8 14.7 8.6L13.7 7C13.3 6.4 12.7 6 12 6 11.7 6 11.5 6.1 11.2 6.1L7.2 7.8C6.5 8.1 6 8.8 6 9.6L6 12C6 12.5 6.4 13 7 13 7.5 13 8 12.5 8 12L8 9.6 9.8 8.9 8.2 17 4.3 16.2C3.7 16.1 3.2 16.4 3.1 17L3.1 17C3 17.5 3.3 18.1 3.9 18.2L8 19C9 19.2 10.1 18.5 10.3 17.5Z" fill="currentColor"/></g></svg>