<svg viewBox="0 0 512 512" fill="none" xmlns="http://www.w3.org/2000/svg">
<g>
<path d="M86.0149 330.308L38.5989 282.892L94.5171 226.974L279.276 411.733L223.358 467.651L178.558 422.851M86.0149 330.308L35.0018 381.321L80.7828 427.102M86.0149 330.308L178.558 422.851M178.558 422.851L127.545 473.864L80.7828 427.102M46.4471 461.438L80.7828 427.102" stroke="currentColor" stroke-width="40"/>
<path d="M329.308 87.015L281.892 39.599L225.974 95.5171L318.353 187.897M329.308 87.015L380.321 36.0019L426.102 81.7829M329.308 87.015L421.851 179.558M421.851 179.558L466.651 224.358L410.733 280.276L318.353 187.897M421.851 179.558L472.864 128.545L426.102 81.7829M460.438 47.4471L426.102 81.7829M318.353 187.897L186.896 319.353" stroke="currentColor" stroke-width="40"/>
</g>
</svg>
