<svg xmlns="http://www.w3.org/2000/svg" viewBox="0 0 13.9 13.9"><path d="m13.9 3.6c0-1.1-0.9-2-2-2-1 0-1.9 0.8-2 1.8-0.8-0.5-1.8-0.8-2.9-0.8-1.1 0-2.1 0.3-2.9 0.8-0.1-1-1-1.8-2-1.8-1.1 0-2 0.9-2 2s0.9 2 2 2c0 0 0 0 0 0-0.2 0.6-0.4 1.2-0.4 1.8 0 2.7 2.4 4.9 5.3 4.9 2.9 0 5.3-2.2 5.3-4.9 0-0.6-0.1-1.2-0.4-1.8 0 0 0 0 0 0 1.1 0 2-0.9 2-2zm-11.9 1.3c-0.7 0-1.3-0.6-1.3-1.3 0-0.7 0.6-1.3 1.3-1.3s1.3 0.6 1.3 1.3c0 0.1 0 0.2 0 0.3-0.3 0.3-0.6 0.6-0.8 1-0.1 0.1-0.3 0.1-0.4 0.1zm4.9 6.7c-2.5 0-4.6-1.9-4.6-4.2s2-4.2 4.6-4.2c2.5 0 4.6 1.9 4.6 4.2s-2 4.2-4.6 4.2zm4.5-6.8c-0.2-0.4-0.5-0.7-0.8-1 0-0.1 0-0.2 0-0.3 0-0.7 0.6-1.3 1.3-1.3s1.3 0.6 1.3 1.3c0 0.7-0.6 1.3-1.3 1.3-0.2 0-0.3 0-0.4-0.1zm-6.8 1.5c-0.3 0-0.6 0.3-0.6 0.6 0 0.3 0.3 0.6 0.6 0.6s0.6-0.3 0.6-0.6c0-0.3-0.3-0.6-0.6-0.6zm4.6 0c-0.3 0-0.6 0.3-0.6 0.6 0 0.3 0.3 0.6 0.6 0.6s0.6-0.3 0.6-0.6c0-0.3-0.3-0.6-0.6-0.6zm-1.9 3.1v-0.5l0.4-0.5-0.2-0.2h-1l-0.2 0.2 0.4 0.5v0.5c0 0.1-0.1 0.2-0.2 0.2h-1.1c0 0.4 0.1 0.7 0.5 0.7h0.7c0.2 0 0.4-0.1 0.5-0.2 0.1 0.1 0.3 0.2 0.5 0.2h0.7c0.4 0 0.5-0.3 0.5-0.7h-1.1c-0.1 0-0.2-0.1-0.2-0.2z" fill="currentColor"/></svg>