<svg xmlns="http://www.w3.org/2000/svg" viewBox="0 0 32 32"><path d="M31 2.6l-0.9-0.9c-1.1-1.1-2.7-1.7-4.6-1.7 -4.7 0-11.1 3.4-16.6 8.9C0.9 16.8-2.2 26.1 1.7 30.1l0.9 0.9c0.7 0.7 1.6 1 2.5 1 1 0 1.8-0.4 2.5-1l3.6-3.6c1.4-1.4 1.4-3.6 0-5l-0.9-0.9c-1-1-0.5-3.4 3.6-7.5 3.5-3.5 5.5-4 6.4-4 0.5 0 0.8 0.1 1.1 0.4l0.9 0.9c1.3 1.3 3.7 1.3 5 0l3.6-3.6c0.7-0.7 1-1.6 1-2.5C32 4.2 31.7 3.3 31 2.6zM29.6 6.2l-3.6 3.6c-0.6 0.6-1.6 0.6-2.2 0l-0.9-0.9c-0.7-0.7-1.6-1-2.6-1 -2.1 0-4.8 1.6-7.9 4.6 -6.3 6.3-4.6 9.4-3.6 10.4l0.9 0.9c0.6 0.6 0.6 1.6 0 2.2l-3.6 3.6c-0.6 0.6-1.6 0.6-2.2 0l-0.9-0.9c-3-3 0.3-11.4 7.2-18.3 5-5 11-8.3 15.2-8.3 1.4 0 2.5 0.4 3.2 1.1l0.9 0.9c0.3 0.3 0.4 0.7 0.4 1.1C30 5.5 29.9 5.9 29.6 6.2z"/></svg>