<svg xmlns="http://www.w3.org/2000/svg" viewBox="0 0 696.3 696.3"><path d="M207.6 696.3c-6 0-10.9-4.9-10.9-10.9 0-6 4.9-10.9 10.9-10.9h337.3c6 0 10.9 4.9 10.9 10.9 0 6-4.9 10.9-10.9 10.9H207.6L207.6 696.3zM601.1 696.3h42.2c6 0 10.9-4.9 10.9-10.9v-0.3c0-80.4-16.6-152.3-51.3-210 -33-54.9-82.1-97-148.9-121.4 -5.6-2-11.9 0.9-13.9 6.5 -2 5.6 0.9 11.9 6.5 13.9 61.8 22.6 107.2 61.4 137.7 112.1 31 51.7 46.6 116 48 188.3H601.1c-6 0-10.9 4.9-10.9 10.9C590.2 691.4 595.1 696.3 601.1 696.3L601.1 696.3zM242.3 353.7c-66.7 24.4-115.9 66.4-148.9 121.4C58.7 533 42.2 604.9 42.2 685.4c0 6 4.9 10.9 10.9 10.9 6 0 10.9-4.9 10.9-10.9 0-76.7 15.5-144.9 48.1-199.2 30.4-50.7 75.9-89.5 137.7-112.1 5.6-2 8.5-8.3 6.5-13.9S247.9 351.7 242.3 353.7L242.3 353.7zM109.3 696.3c-6 0-10.9-4.9-10.9-10.9 0-6 4.9-10.9 10.9-10.9h42.2c6 0 10.9 4.9 10.9 10.9 0 6-4.9 10.9-10.9 10.9H109.3z"/><path d="M305.3 445.5l35.1-35.1c4.2-4.2 11.2-4.2 15.4 0l35.1 35.1c4.2 4.2 4.2 11.2 0 15.4l-35.1 35.1c-4.2 4.2-11.1 4.2-15.4 0l-35.1-35.1C301.1 456.7 301.1 449.8 305.3 445.5L305.3 445.5zM348.2 433.5l-19.7 19.7 19.7 19.7 19.7-19.7L348.2 433.5z"/><path d="M397.7 633.9c2.1 5.6-0.8 11.9-6.5 13.9 -5.6 2.1-11.9-0.8-13.9-6.5l-29.1-79.3 -29.1 79.3c-2.1 5.6-8.3 8.5-13.9 6.5 -5.6-2.1-8.5-8.3-6.5-13.9l39.3-107.1h0c1.1-2.9 3.3-5.3 6.5-6.5 5.6-2.1 11.9 0.8 13.9 6.5L397.7 633.9z"/><path d="M518.4 607.6c-2.3-5.5 0.3-11.9 5.8-14.2 5.5-2.3 11.9 0.3 14.2 5.8 5.7 13.4 10.1 27.6 13 42.2 2.9 14.4 4.4 29.1 4.4 44.1 0 6-4.9 10.9-10.9 10.9 -6 0-10.9-4.9-10.9-10.9 0-13.8-1.4-27.1-3.9-39.8C527.5 632.4 523.5 619.7 518.4 607.6z"/><path d="M162.3 685.4c0 6-4.9 10.9-10.9 10.9 -6 0-10.9-4.9-10.9-10.9 0-14.9 1.5-29.7 4.4-44.1 2.9-14.6 7.4-28.8 13-42.2 2.3-5.5 8.7-8.1 14.2-5.8 5.5 2.3 8.1 8.7 5.8 14.2 -5.1 12.1-9.1 24.9-11.7 38C163.7 658.3 162.3 671.6 162.3 685.4z"/><path d="M168.7 179.1c0.3-6 5.3-10.6 11.3-10.4 6 0.2 10.6 5.3 10.4 11.3 0 0.2-3.1 84.3-42 118.5 9.1 3.1 19.3 5.4 29.3 5.9 15.1 0.7 29.5-3 36.7-15.8l0.3-0.5c2.9-5.3 9.4-7.2 14.7-4.4 5.3 2.9 7.2 9.5 4.4 14.7l-0.3 0.5 0 0.1c-12 21.7-34 28.2-56.7 27 -20.7-1-42.2-8.6-56.1-16l0 0 -0.1 0 -1.2-0.6c-2.4-1.3-4.3-3.5-5.2-6.3 -1.7-5.7 1.5-11.8 7.2-13.6C165 276.1 168.7 179.3 168.7 179.1z"/><path d="M506 180c-0.2-6 4.4-11.1 10.4-11.3 6-0.2 11.1 4.4 11.3 10.4 0 0.3 3.7 97 47.4 110.5 5.7 1.7 8.9 7.8 7.2 13.6 -0.9 2.8-2.8 5-5.2 6.3l-1.2 0.6 0 0 0 0c-13.8 7.4-35.3 15-56.1 16 -22.7 1.1-44.7-5.3-56.7-27l0-0.1 -0.3-0.5c-2.9-5.3-0.9-11.9 4.4-14.7s11.9-0.9 14.7 4.4l0.3 0.5c7.2 12.8 21.6 16.5 36.7 15.8 10-0.5 20.2-2.8 29.3-5.9C509.1 264.3 506 180.2 506 180z"/><path d="M348.2 0c49.6 0 94.5 20.1 126.9 52.6 32.5 32.5 52.6 77.4 52.6 127 0 49.5-20.1 94.4-52.6 126.9l0 0 0 0h0c-32.5 32.5-77.4 52.6-126.9 52.6 -49.6 0-94.5-20.1-126.9-52.6l-0.6-0.7c-32.1-32.4-52-77.1-52-126.3 0-49.5 20.1-94.4 52.6-126.9l0 0C253.7 20.1 298.6 0 348.2 0L348.2 0zM459.7 68C431.2 39.4 391.7 21.8 348.2 21.8c-43.5 0-83 17.7-111.5 46.2l0 0 0 0c-28.5 28.5-46.1 68-46.1 111.5 0 43.3 17.5 82.6 45.7 111l0.5 0.5c28.5 28.5 68 46.2 111.5 46.2 43.6 0 83.1-17.7 111.5-46.1l0 0c28.5-28.5 46.1-68 46.1-111.5C505.9 136 488.2 96.5 459.7 68z"/><path d="M348.2 0c40.8 0 78.4 13.6 108.6 36.6l0.7 0.6c30.5 23.4 53.2 56.4 63.7 94.5 1.6 5.8-1.8 11.7-7.5 13.3 -1 0.3-1.9 0.4-2.9 0.4v0H372.7c-26.3 0-50.2-10.8-67.6-28.1l0-0.1c-17.3-17.3-28.1-41.3-28.1-67.5V22c0-4.9 3.3-9 7.7-10.4 9.8-3.7 20.1-6.6 30.8-8.6C326.2 1 337.2 0 348.2 0L348.2 0zM443.6 53.8C417.1 33.7 384 21.8 348.2 21.8c-10 0-19.6 0.9-28.7 2.6 -7 1.3-13.9 3.1-20.7 5.3v20.1c0 20.3 8.3 38.8 21.7 52.2l0.1 0.1c13.4 13.4 31.9 21.7 52.2 21.7h123.1c-10.5-27.7-28.6-51.7-51.7-69.4L443.6 53.8z"/><path d="M175.4 130.7c7.6-27.1 21.5-51.6 39.9-71.8 18.7-20.6 42.2-36.9 68.7-47 5.6-2.1 11.9 0.7 14 6.3 0.5 1.3 0.7 2.6 0.7 3.9h0V49.7c0 26.3-10.8 50.3-28.1 67.6l-0.7 0.6c-17.3 17-41 27.5-66.9 27.5h-17.4c-6 0-10.9-4.9-10.9-10.9C174.7 133.2 175 131.9 175.4 130.7L175.4 130.7zM231.4 73.5c-13.2 14.5-23.7 31.5-30.8 50.2h2.5c20 0 38.3-8.1 51.6-21.1l0.6-0.6c13.4-13.4 21.7-31.9 21.7-52.2V38.7C259.7 47.4 244.2 59.3 231.4 73.5z"/><path d="M391.7 282.5c5.5-2.3 11.9 0.3 14.2 5.8 2.3 5.5-0.3 11.9-5.8 14.2 -8.1 3.4-16.6 6.1-25.4 7.8 -8.7 1.7-17.6 2.7-26.5 2.7 -8.9 0-17.8-0.9-26.5-2.7 -8.8-1.8-17.3-4.4-25.4-7.8 -5.5-2.3-8.1-8.7-5.8-14.2 2.3-5.5 8.7-8.1 14.2-5.8 6.8 2.9 13.9 5.1 21.3 6.6 7 1.4 14.5 2.2 22.3 2.2 7.8 0 15.3-0.7 22.3-2.2C377.8 287.6 384.9 285.4 391.7 282.5z"/><path d="M240.7 373.4c-5.2-2.9-7.1-9.5-4.2-14.7 2.9-5.2 9.5-7.1 14.7-4.2 14.6 8.1 30.3 14.4 46.7 18.7l0 0v0c15.9 4.1 32.7 6.3 50.1 6.3 17.4 0 34.2-2.2 50.1-6.3l0.5-0.1c16.3-4.2 31.9-10.5 46.3-18.6 5.2-2.9 11.8-1 14.7 4.2 2.9 5.2 1 11.8-4.2 14.7 -16 8.9-33.3 15.9-51.5 20.6l-0.4 0.1c-17.8 4.6-36.4 7.1-55.5 7.1s-37.7-2.4-55.6-7.1v0C274.3 389.4 256.9 382.3 240.7 373.4z"/></svg>