<svg xmlns="http://www.w3.org/2000/svg" viewBox="0 0 48 48"><path d="M46.3 38.5l-5.1-4.3 1.8-6.7c0-0.1 0-0.2 0.1-0.3l0-0.1c0 0 0-0.1 0-0.1 0.1-1-0.2-2-1-2.8l-6-6.2c-1.3-1.3-3.3-1.3-4.6-0.3l0 0c-0.1 0-0.1 0.1-0.2 0.2 0 0 0 0 0 0 0 0-0.1 0.1-0.1 0.1 0 0 0 0 0 0.1l-2.5 2.4c-0.1 0.1-0.2 0.3-0.3 0.5l0 0 0 0 -1.8 4.4 -4.4 1.8c-0.8 0.3-1.1 1.2-0.8 1.9C21.3 29.6 21.9 30 22.5 30c0.2 0 0.4 0 0.6-0.1l5-2c0.4-0.2 0.7-0.5 0.8-0.8l2.1-3.1 3.5 3.5 -4.8 4c-0.3 0.3-0.5 0.6-0.6 1l-2 7c-0.3 1.1 0.3 2.2 1.4 2.5C28.6 42 28.8 42 29 42c0.9 0 1.7-0.6 1.9-1.5l1.8-6.4 4.7-3.3 -0.5 3.9c-0.1 0.7 0.2 1.4 0.7 1.8l6 5c0.9 0.7 2.1 0.6 2.8-0.3C47.2 40.4 47.1 39.2 46.3 38.5z"/><path d="M26 22.3c-0.1-0.8-0.9-1.4-1.7-1.2l-4.8 0.8L17 16.4c-0.1-0.3-0.4-0.5-0.6-0.7 0 0-1.7-1.1-2.2-1.3 -1.7-0.9-3.8-0.2-4.7 1.6L5.4 24.2c-0.4 0.8-0.4 1.8-0.4 1.8l1 7.2 -4.5 5.4c-0.7 0.8-0.6 2.1 0.3 2.8 0.9 0.7 2.1 0.6 2.8-0.3l5-6c0.3-0.4 0.5-0.8 0.5-1.3v-4.4l5.2 4.5 1.8 6.4C17.3 41.4 18.1 42 19 42c0.2 0 0.4 0 0.6-0.1 1.1-0.3 1.7-1.4 1.4-2.5l-2-7c-0.1-0.4-0.3-0.7-0.6-1l-5.3-5.6 2.3-4.6 0 0v0l1.8 2.7c0.2 0.6 0.8 0.9 1.4 0.9 0.1 0 0.2 0 0.2 0l6-1C25.6 23.8 26.1 23.1 26 22.3z"/><path d="M16.5 6c1.9 0 3.5 1.6 3.5 3.5s-1.6 3.5-3.5 3.5c-1.9 0-3.5-1.6-3.5-3.5S14.6 6 16.5 6"/><path d="M27.5 11c1.9 0 3.5 1.6 3.5 3.5s-1.6 3.5-3.5 3.5c-1.9 0-3.5-1.6-3.5-3.5S25.6 11 27.5 11"/><path d="M18.3 31.5l-5.3-5.6 2.3-4.6 0 0 2.1-4.2L17 16.4c-0.1-0.3-0.4-0.5-0.6-0.7 0 0-1.7-1.1-2.2-1.3 -1.7-0.9-3.8-0.2-4.7 1.6L5.4 24.2c-0.4 0.8-0.4 1.8-0.4 1.8L6 33h4v-3.4l5.2 4.5L18.3 31.5z"/><path d="M41.1 34.2l1.8-6.7c0-0.1 0-0.2 0.1-0.3l0-0.1c0 0 0-0.1 0-0.1 0.1-1-0.2-2-1-2.8l-6-6.2c-1.3-1.3-3.3-1.3-4.6-0.3 -0.1 0-0.1 0.1-0.2 0.2 0 0-0.1 0.1-0.1 0.1 0 0 0 0 0 0.1l-2.5 2.4c-0.1 0.1-0.2 0.3-0.3 0.5l0 0 2.2 2.3c0.1 0.1 0.1 0.2 0.2 0.3l4 4 -4.8 4 3 2.7 4.7-3.3 -0.5 3.9L41.1 34.2z" /></svg>